<?xml version="1.0" standalone="no"?><!DOCTYPE svg PUBLIC "-//W3C//DTD SVG 1.1//EN" "http://www.w3.org/Graphics/SVG/1.1/DTD/svg11.dtd"><svg t="1694439876583" class="icon" viewBox="0 0 1024 1024" version="1.1" xmlns="http://www.w3.org/2000/svg" p-id="1901" xmlns:xlink="http://www.w3.org/1999/xlink" width="200" height="200"><path d="M678.89301 985.289586a477.306705 477.306705 0 0 1-134.025678 29.580599C304.935806 1032.034237 74.499287 865.141227 49.300999 662.459344c-24.467903-194.282454 149.728959-332.690442 175.657632-352.776034 117.957204-90.56776 322.830243-159.954351 511.269614-73.038517l12.416548 6.208274 8.764622 4.382311a292.154066 292.154066 0 0 1 27.389444 15.703281l14.607703 9.495007 13.877318 9.8602 16.068474 11.32097 12.78174 10.955777a219.115549 219.115549 0 0 1 21.18117 19.7204l5.477889 5.477889c9.129815 9.495007 17.894437 19.355207 25.928673 29.580599a13.146933 13.146933 0 0 1 2.556348 3.651926l5.477889 6.938659c5.477889 7.303852 10.225392 14.242511 14.972896 21.546362a117.226819 117.226819 0 0 1 6.938659 11.32097 255.634807 255.634807 0 0 1 13.512125 24.10271 339.629101 339.629101 0 0 1 22.64194 54.778888 62.447932 62.447932 0 0 1 3.286734 10.955777 189.169757 189.169757 0 0 1 5.112696 19.355207l2.191155 9.129815c0 5.477889 1.825963 10.955777 2.921541 16.798858 0 6.938659 1.825963 13.512126 2.556348 20.450785 14.607703 178.21398-111.018545 356.062767-297.997147 426.910128z" fill="#EA4949" p-id="1902"></path><path d="M510.53923 1024C281.563481 1024 66.099857 862.219686 41.266762 663.189729c-23.372325-187.708987 131.104137-322.830243 178.944365-359.714693 117.592011-90.56776 324.291013-164.336662 519.669044-73.038517l12.781741 6.208274 9.129814 4.747504c9.8602 5.112696 18.990014 10.590585 27.389444 15.703281l14.972896 9.860199 3.286733 2.191156 10.955777 7.669044 14.972896 11.686163 13.146933 10.955777c7.303852 6.573466 14.607703 13.146933 21.18117 20.085592a44.188302 44.188302 0 0 1 5.843081 5.843082 331.960057 331.960057 0 0 1 26.293866 30.310984l3.286733 3.651926 5.112696 7.303851a247.965763 247.965763 0 0 1 14.972896 21.546363c2.556348 4.017118 5.112696 7.669044 7.303852 11.686162s9.495007 16.068474 13.877318 24.467903a8.034237 8.034237 0 0 1-3.651926 10.590585 8.034237 8.034237 0 0 1-10.955777-3.651926 219.115549 219.115549 0 0 0-13.146933-23.372325l-6.573467-10.955777c-4.747504-7.669044-9.8602-14.607703-14.607703-20.815978l-5.477889-6.938659-1.46077-2.556348a385.278174 385.278174 0 0 0-25.928673-29.580599l-5.112696-6.938659a265.495007 265.495007 0 0 0-20.815978-19.720399l-12.416547-10.590585-12.781741-10.225392c-4.017118-3.286733-7.669044-5.477889-11.32097-8.034237l-3.286733-2.191156-14.242511-9.495007c-8.034237-5.112696-16.798859-9.8602-26.659058-14.972896l-8.39943-4.747503-12.416547-5.843082c-189.169757-86.915835-389.295292-15.338088-503.600571 73.038517-46.014265 36.519258-195.012839 165.797432-172.736091 345.10699 25.198288 200.85592 252.713267 362.271041 487.166904 345.472182a468.542083 468.542083 0 0 0 132.199715-29.215406c182.596291-69.386591 306.761769-245.044223 292.154065-417.415121 0-6.938659 0-13.512126-2.556348-20.085592s0-11.32097-2.92154-16.798859v-8.034237c0-2.556348-3.286733-13.146933-5.112696-18.990014a96.045649 96.045649 0 0 0-2.921541-10.955778 9.495007 9.495007 0 0 1 0-3.651926l7.303852-3.286733 7.303851-2.191155-7.303851 2.191155h7.669044v4.017119c0 1.46077 2.191155 6.938659 3.286733 10.955777a189.169757 189.169757 0 0 1 0.365193 18.259629c0 2.556348 0 5.843081 2.191155 9.129815s1.825963 9.8602 2.921541 15.703281c0 5.843081 0 12.78174 2.191155 19.720399 15.338088 179.67475-111.74893 361.905849-302.379458 433.848788a484.245364 484.245364 0 0 1-136.582025 30.310984c-9.8602 2.556348-21.546362 2.556348-33.232525 2.556348z" p-id="1903"></path><path d="M678.89301 985.289586h-3.651926c214.368046-130.373752 213.272468-624.114123 213.272468-624.114122h5.843081a13.146933 13.146933 0 0 1 2.556348 3.651925l5.477889 6.93866c5.477889 6.938659 10.225392 14.242511 14.972896 21.546362a117.226819 117.226819 0 0 1 6.938659 11.32097 255.634807 255.634807 0 0 1 13.512126 24.10271 339.629101 339.629101 0 0 1 22.64194 54.778888 62.447932 62.447932 0 0 1 3.286733 10.955777 189.169757 189.169757 0 0 1 5.112696 19.355207l2.191156 9.129814c0 5.477889 1.825963 10.955777 2.92154 16.798859 0 6.938659 1.825963 13.512126 2.556348 20.450785 14.972896 176.388017-110.653352 354.236805-297.631954 425.084165z" opacity=".1" p-id="1904"></path><path d="M376.878745 34.328103L520.764622 8.034237s40.901569 142.7903 0 209.985734c0 0-89.10699-166.527817-143.885877-183.691868z" fill="#3BBC41" p-id="1905"></path><path d="M520.764622 226.054208a7.669044 7.669044 0 0 1-6.573467-4.382311c-24.467903-45.28388-97.141227-166.527817-139.503566-179.67475a8.399429 8.399429 0 0 1-5.477889-8.034237 7.669044 7.669044 0 0 1 6.573467-7.303852l143.520685-25.198288a8.034237 8.034237 0 0 1 9.129814 5.477889c0 6.208274 41.266762 146.077033 0 216.194009a7.669044 7.669044 0 0 1-7.669044 2.92154zM400.25107 37.980029a641.643367 641.643367 0 0 1 120.148359 162.510699c23.372325-58.430813 0-156.667618-5.477888-182.596291z" p-id="1906"></path><path d="M846.151213 316.256776a259.286733 259.286733 0 0 0 73.038516-41.631954 261.112696 261.112696 0 0 0-328.673324-133.660485 255.634807 255.634807 0 0 0-73.038516 41.266761 261.112696 261.112696 0 0 0 328.673324 134.025678z" fill="#87D887" p-id="1907"></path><path d="M756.313837 341.089872a270.972896 270.972896 0 0 1-246.870185-157.032811l-2.556348-5.477888 4.747503-4.017119a273.894437 273.894437 0 0 1 73.038517-42.727532 270.607703 270.607703 0 0 1 339.629101 138.042796l2.556348 5.477889-4.747503 4.017118a273.894437 273.894437 0 0 1-73.038517 42.727532 267.686163 267.686163 0 0 1-92.758916 18.990015z m-229.706134-157.032811a255.634807 255.634807 0 0 0 316.987161 124.165478 252.713267 252.713267 0 0 0 65.00428-36.519258 253.808845 253.808845 0 0 0-381.991441-87.64622z" p-id="1908"></path><path d="M153.746077 227.514979a269.512126 269.512126 0 0 0-42.727532 73.038516 262.208274 262.208274 0 0 0 353.141227-43.457917 267.686163 267.686163 0 0 0 42.727532-73.038517 261.843081 261.843081 0 0 0-353.141227 43.457918z" fill="#87D887" p-id="1909"></path><path d="M263.669044 355.697575a265.8602 265.8602 0 0 1-157.03281-50.761769l-5.112696-3.651926 2.191155-5.477889a277.546362 277.546362 0 0 1 43.82311-73.038516 270.972896 270.972896 0 0 1 365.192582-44.553495l4.747504 3.651926-2.191156 5.843081a267.32097 267.32097 0 0 1-250.522111 168.718973zM120.878745 295.805991a255.634807 255.634807 0 0 0 337.072753-46.014265 243.948645 243.948645 0 0 0 39.075606-63.178317 255.634807 255.634807 0 0 0-337.072753 46.014266A250.156919 250.156919 0 0 0 120.878745 295.805991z" p-id="1910"></path><path d="M476.941512 542.310984a255.634807 255.634807 0 0 0 60.256776 57.700428 261.477889 261.477889 0 0 0 36.519258-353.506419 255.634807 255.634807 0 0 0-59.891583-57.700428A261.843081 261.843081 0 0 0 476.941512 542.310984z" fill="#87D887" p-id="1911"></path><path d="M537.198288 610.236805l-5.112696-3.651926a265.495007 265.495007 0 0 1-61.717546-59.526391 270.607703 270.607703 0 0 1 39.805991-365.192582l4.747504-4.017119 5.112696 3.651926a263.669044 263.669044 0 0 1 61.352354 59.526391 270.607703 270.607703 0 0 1-39.440799 365.192582z m-21.18117-411.206848a255.634807 255.634807 0 0 0-32.502139 338.533524 255.634807 255.634807 0 0 0 53.683309 52.222539 252.713267 252.713267 0 0 0-20.085592-390.756063z" p-id="1912"></path></svg>